<svg width="40" height="40" viewBox="0 0 500 500" fill="none" xmlns="http://www.w3.org/2000/svg">
  <circle cx="250" cy="250" r="250" fill="#F59E0B"/>
  <path d="M101 138.491C101 129.654 108.163 122.491 117 122.491H128.459C137.295 122.491 144.459 129.654 144.459 138.491V373.4C144.459 382.236 137.295 389.4 128.459 389.4H117C108.163 389.4 101 382.236 101 373.4V138.491ZM177.777 122.491C189.125 122.491 200.351 124.302 211.458 127.923C222.564 131.545 232.463 136.977 241.154 144.22C250.087 151.463 257.21 160.276 262.521 170.658C268.075 180.798 270.851 192.266 270.851 205.062C270.851 218.583 268.557 230.896 263.97 242.002C259.383 252.867 252.985 262.042 244.776 269.526C236.567 277.011 226.668 282.805 215.079 286.91C203.49 291.014 190.694 293.066 176.691 293.066H175.242C166.441 293.066 159.307 285.932 159.307 277.131C159.307 268.331 166.441 261.197 175.242 261.197H184.296C189.607 261.197 194.798 260.352 199.869 258.662C205.18 256.73 210.009 253.712 214.355 249.608C218.701 245.503 222.201 239.829 224.857 232.586C227.513 225.102 228.841 215.927 228.841 205.062C228.841 200.717 228.237 195.767 227.03 190.214C225.823 184.42 223.288 178.987 219.425 173.917C215.803 168.605 210.612 164.26 203.852 160.879C197.092 157.258 188.159 155.447 177.053 155.447H175.307C166.471 155.447 159.307 148.284 159.307 139.447V138.491C159.307 129.654 166.471 122.491 175.307 122.491H177.777Z" fill="white"/>
  <path d="M399.721 138.491C399.721 129.654 392.557 122.491 383.721 122.491H372.262C363.425 122.491 356.262 129.654 356.262 138.491V373.4C356.262 382.236 363.425 389.4 372.262 389.4H383.721C392.557 389.4 399.721 382.236 399.721 373.4V138.491ZM322.944 122.491C311.596 122.491 300.369 124.302 289.263 127.923C278.157 131.545 268.258 136.977 259.566 144.22C250.633 151.463 243.511 160.276 238.199 170.658C232.646 180.798 229.87 192.266 229.87 205.062C229.87 218.583 232.163 230.896 236.751 242.002C241.338 252.867 247.736 262.042 255.945 269.526C264.154 277.011 274.053 282.805 285.642 286.91C297.231 291.014 310.027 293.066 324.03 293.066H325.479C334.279 293.066 341.414 285.932 341.414 277.131C341.414 268.331 334.279 261.197 325.479 261.197H316.425C311.113 261.197 305.922 260.352 300.852 258.662C295.541 256.73 290.712 253.712 286.366 249.608C282.02 245.503 278.519 239.829 275.863 232.586C273.208 225.102 271.88 215.927 271.88 205.062C271.88 200.717 272.483 195.767 273.69 190.214C274.898 184.42 277.433 178.987 281.296 173.917C284.917 168.605 290.108 164.26 296.868 160.879C303.629 157.258 312.562 155.447 323.668 155.447H325.414C334.25 155.447 341.414 148.284 341.414 139.447V138.491C341.414 129.654 334.25 122.491 325.414 122.491H322.944Z" fill="white"/>
</svg>
